<svg xmlns="http://www.w3.org/2000/svg" viewBox="0 0 611.99 612"><defs><style>.cls-1,.cls-3{fill:#333;}.cls-2{fill:#fff;}.cls-3{font-size:50.45px;font-family:RockwellStd, Rockwell Std;letter-spacing:-0.08em;}.cls-4{letter-spacing:-0.05em;}.cls-5{letter-spacing:-0.08em;}.cls-6{letter-spacing:-0.13em;}</style></defs><title>Asset 3</title><g id="Layer_2" data-name="Layer 2"><g id="Layer_1-2" data-name="Layer 1"><rect class="cls-1" x="60.82" y="158" width="490.82" height="226.02"/><g id="_Group_" data-name="&lt;Group&gt;"><g id="_Group_2" data-name="&lt;Group&gt;"><path id="_Path_" data-name="&lt;Path&gt;" class="cls-2" d="M281.47,251.36c-24.83,0-43.75,20.39-43.75,47.29,0,27.2,18.91,47.29,43.75,47.29,25.12,0,44-20.09,44-47.29C325.51,271.75,306.59,251.36,281.47,251.36Z"/><path id="_Compound_Path_" data-name="&lt;Compound Path&gt;" class="cls-2" d="M306,0C137,0,0,137,0,306S137,612,306,612,612,475,612,306,475,0,306,0Zm85.13,164.76a16.55,16.55,0,1,1-16.56,16.55A16.52,16.52,0,0,1,391.13,164.76Zm-86.31,9.44a14.32,14.32,0,1,1-14.32,14.33A14.33,14.33,0,0,1,304.82,174.2ZM264.32,158a7.06,7.06,0,1,1-7.07,7.06A7.07,7.07,0,0,1,264.32,158ZM152.59,370.77c-15.08,0-26.6-3.24-36.65-10.05v7.68H91.41V320.53h24.53v4.73c2.37,13.88,15.08,22.46,33.41,22.46,17.43,0,28.67-6.8,28.67-17.44,0-26-49.07-9.46-75.67-36.06a38.27,38.27,0,0,1-10.94-26.6c0-23.94,20.69-41.09,49.07-41.09,12.71,0,24.83,3,34,8v-5.62H198.7V275H174.47v-8.57c-8-11.82-18.32-17.14-32.52-17.14-14.77,0-24.53,6.8-24.53,17.14,0,23.36,53.79,9.76,76.85,32.81a41.2,41.2,0,0,1,11.83,29C206.1,353.63,184.52,370.77,152.59,370.77Zm128.87,1.78c-42,0-73.3-31.63-73.3-73.9,0-22.37,8.78-41.76,23.3-55.05a32,32,0,1,1,46.13-18.74c1.38-.07,2.76-.11,4.15-.11,42,0,73.3,31.63,73.3,73.9S323.44,372.55,281.47,372.55ZM498.71,228.89v24.24H475.07v91H502V368.4H355.65V344.17h22.17v-91H355.65V228.89h50V344.17h41.67v-91h-20.4V228.89h20.4V203.77c0-27.79,17.44-40.2,37.24-40.2s32.81,11.53,36.06,32.22l-24.24,3.84c-.88-9.16-4.43-13.59-10.63-13.59-6.8,0-10.64,5.62-10.64,15.07v27.79Z"/></g><text class="cls-3" transform="translate(90.89 450.45)">School of Inte<tspan class="cls-4" x="255.71" y="0">r</tspan><tspan class="cls-5" x="274.23" y="0">national</tspan><tspan class="cls-5"><tspan x="142.39" y="60.54">Futu</tspan><tspan class="cls-6" x="226.13" y="60.54">r</tspan><tspan x="240.6" y="60.54">es</tspan></tspan></text></g></g></g></svg>